<svg xmlns="http://www.w3.org/2000/svg" viewBox="0 0 486.72 136.01">
    <defs>
        <style>.cls-1{fill:#f08225;}</style>
    </defs>
    <g id="Слой_2" data-name="Слой 2">
        <g id="Слой_1-2" data-name="Слой 1">
            <path class="cls-1"
                  d="M58.9,0,0,34v68l58.9,34,58.89-34V34Zm0,125.44L15.84,100.58,58.9,75.41,102,100.58ZM30.69,79.08,58.9,46.26,87.1,79.08l-28.2-17Zm78,7.29L58.9,29,9.16,86.37V39.29L58.9,10.57l49.74,28.72Z"/>
            <path class="cls-1"
                  d="M186.53,31.78H172.21L152.15,71.9h14.33l4.32-8.64H188l4.32,8.64h14.32Zm-7.16,19.73L162.56,61.62l16.81-19.56,16.81,19.56Z"/>
            <polygon class="cls-1"
                     points="254.02 61.87 254.02 71.9 211.04 71.9 211.04 31.78 225.37 31.78 225.37 61.87 254.02 61.87"/>
            <path class="cls-1"
                  d="M272.8,44.67c0,1.44.47,2.15,1.43,2.15l8.6.72,10,.72q14.31.7,14.32,10v3.58q0,10-11.46,10H269.93q-11.46,0-11.46-10V59H272.8q0,2.86,4.29,2.87h11.47c2.86,0,4.3-1,4.3-2.87a1.9,1.9,0,0,0-2.15-2.15l-7.88-.71-10-.72q-14.32-.72-14.33-9.31v-4.3q0-8.6,11.46-10h25.79q11.46,0,11.46,10v2.86H292.86c0-1.9-1.44-2.86-4.3-2.86H277.09C274.23,41.81,272.8,42.77,272.8,44.67Z"/>
            <polygon class="cls-1"
                     points="343.15 51.84 363.21 71.9 348.88 71.9 333.84 56.85 325.96 56.85 325.96 71.9 311.63 71.9 311.63 31.78 325.96 31.78 325.96 46.82 333.84 46.82 348.88 31.78 363.21 31.78 343.15 51.84"/>
            <path class="cls-1"
                  d="M404.9,31.78H379.12q-11.46,0-11.46,10V61.87q0,10,11.46,10H404.9q11.48,0,11.47-10V41.81Q416.37,31.79,404.9,31.78ZM402,59q0,2.86-4.3,2.87H386.28c-2.86,0-4.3-1-4.3-2.87V44.67c0-1.9,1.44-2.86,4.3-2.86h11.46c2.87,0,4.3,1,4.3,2.86Z"/>
            <polygon class="cls-1"
                     points="486.72 31.78 486.72 71.9 472.39 71.9 472.39 48.97 460.93 71.9 446.6 71.9 435.13 48.95 435.14 51.84 435.14 71.9 420.82 71.9 420.82 31.78 440.87 31.78 453.77 57.57 466.66 31.78 486.72 31.78"/>
            <path class="cls-1"
                  d="M156.9,101a2.6,2.6,0,0,0,.5,1.43,2.84,2.84,0,0,0,2.27.91c1.49,0,2.39-.66,2.39-1.74a1.46,1.46,0,0,0-.82-1.36,15.77,15.77,0,0,0-2.91-.79,7.48,7.48,0,0,1-3.12-1.13,4.36,4.36,0,0,1-1.88-3.72c0-3,2.41-4.86,6.23-4.86,2.46,0,4.34.75,5.38,2.21a5.26,5.26,0,0,1,1,2.32l-4.11.45c-.23-1.26-.93-1.79-2.4-1.79-1.18,0-2.05.64-2.05,1.53a1.34,1.34,0,0,0,.91,1.25,11.89,11.89,0,0,0,2.67.64,9.29,9.29,0,0,1,3.14,1.1,4.31,4.31,0,0,1,2.09,4,4.85,4.85,0,0,1-1.35,3.57,7.09,7.09,0,0,1-5.1,1.65,9.17,9.17,0,0,1-4.32-1,4.64,4.64,0,0,1-2.1-2.48,7.23,7.23,0,0,1-.42-1.81Z"/>
            <path class="cls-1"
                  d="M185.74,90.16a19,19,0,0,0-.15,2.93v6.67c0,4.42-2.66,6.92-7.33,6.92a7.52,7.52,0,0,1-5.52-1.9A7.11,7.11,0,0,1,171,99.72V93.09a18.41,18.41,0,0,0-.16-2.93h4.19a17.81,17.81,0,0,0-.15,2.93v6.67c0,2.44,1.1,3.6,3.37,3.6s3.43-1.16,3.43-3.6V93.09a18.66,18.66,0,0,0-.16-2.93Z"/>
            <path class="cls-1"
                  d="M200.26,100.4a13.67,13.67,0,0,0-1.92.09V97.06a16,16,0,0,0,2.54.12h1.55c1,0,1.7,0,2.56-.1a17.92,17.92,0,0,0-.14,2.64v2.17a19.16,19.16,0,0,0,.14,2.89,9.61,9.61,0,0,1-2.46,1.22,13.16,13.16,0,0,1-4.11.66,7.71,7.71,0,0,1-5.76-2.08,9,9,0,0,1-2.29-6.43c0-5.1,3.09-8.34,8-8.34a6.76,6.76,0,0,1,5.54,2.31A5.53,5.53,0,0,1,205,94.23l-4,.91a2.43,2.43,0,0,0-.87-1.39,3,3,0,0,0-2-.6c-2.48,0-3.84,1.8-3.84,5.06a6,6,0,0,0,1.19,4.05,3.63,3.63,0,0,0,2.79,1,5.84,5.84,0,0,0,2.81-.69V100.4Z"/>
            <path class="cls-1"
                  d="M213.61,94.06a3.12,3.12,0,0,1-1,2.46,3.4,3.4,0,0,1-1.88.91L209.85,96a2.72,2.72,0,0,0,1.53-.6,1.61,1.61,0,0,0,.55-1.3H209.7v-3.9h3.91Z"/>
            <path class="cls-1"
                  d="M233.36,90.16a20.33,20.33,0,0,0-.15,2.93v6.67c0,4.42-2.66,6.92-7.33,6.92a7.52,7.52,0,0,1-5.52-1.9,7.11,7.11,0,0,1-1.71-5.06V93.09a20,20,0,0,0-.15-2.93h4.18a19,19,0,0,0-.15,2.93v6.67c0,2.44,1.1,3.6,3.37,3.6s3.43-1.16,3.43-3.6V93.09a20.24,20.24,0,0,0-.15-2.93Z"/>
            <path class="cls-1"
                  d="M248.27,106.29a19.1,19.1,0,0,0-1-3c-.62-1.69-.85-2.14-1.34-2.56a2.12,2.12,0,0,0-1.51-.53h-2v3.18a19.83,19.83,0,0,0,.16,2.93h-4.17a18.53,18.53,0,0,0,.16-2.91V93a19.91,19.91,0,0,0-.16-2.84c.85,0,1.57,0,2.89,0h5c3.14,0,5,1.63,5,4.42a4.24,4.24,0,0,1-1.14,3.18,4.31,4.31,0,0,1-1.85,1c1,.31,1.44.76,2.06,2.13.29.62.56,1.28,1.43,3.37.22.55.45,1,.93,2.06Zm-2.75-9.42a1.69,1.69,0,0,0,1.84-1.8c0-1.09-.62-1.65-1.82-1.65h-3v3.45Z"/>
            <path class="cls-1"
                  d="M265.44,103.36a21.36,21.36,0,0,0,.16,2.93h-4.29a20.89,20.89,0,0,0,.16-2.93V93.59h-2.29a25.53,25.53,0,0,0-2.93.14V90a26.28,26.28,0,0,0,2.89.13h8.49a27.63,27.63,0,0,0,3-.13v3.7a24.38,24.38,0,0,0-3-.14h-2.19Z"/>
            <path class="cls-1"
                  d="M284.34,106.29a15.12,15.12,0,0,0-.47-2.09l-.52-1.65h-5.52l-.53,1.65a11.37,11.37,0,0,0-.48,2.09h-4.54a18.36,18.36,0,0,0,.93-2.37l4.19-11.66a11.85,11.85,0,0,0,.62-2.1h5.06a15.59,15.59,0,0,0,.66,2.1l4.2,11.66c.37,1,.68,1.83.94,2.37Zm-3.78-12.81-1.8,5.81h3.64Z"/>
            <path class="cls-1"
                  d="M315.41,103.42a31.8,31.8,0,0,0,2,2.87h-5a25.45,25.45,0,0,0-1.34-2.46l-3-4.81-1.95,2v2.44a21.38,21.38,0,0,0,.15,2.87h-4.11a21.29,21.29,0,0,0,.16-2.87V93a20.54,20.54,0,0,0-.16-2.87h4.11a21,21,0,0,0-.15,2.87v3.43L310,92.33a11.59,11.59,0,0,0,1.69-2.17h5.23c-.35.35-.48.51-.75.78l-1.36,1.36-4.05,4.24Z"/>
            <path class="cls-1"
                  d="M335.59,98.15c0,5.12-3.12,8.51-7.83,8.51S320,103.34,320,98.21s3.06-8.4,7.83-8.4S335.59,93.07,335.59,98.15Zm-4,0c0-3.14-1.44-5-3.78-5s-3.82,1.92-3.82,5,1.45,5.11,3.82,5.11S331.56,101.37,331.56,98.19Z"/>
            <path class="cls-1"
                  d="M347.33,106.29a14.66,14.66,0,0,0-.83-2.87l-1.78-5.16c0-.09-.6-1.89-.66-2.05-.22-.7-.22-.7-.31-1,.11,1.22.19,2.81.19,3.84v4.2a20.15,20.15,0,0,0,.16,3h-3.82a22.64,22.64,0,0,0,.15-3V93.19a28.72,28.72,0,0,0-.15-3h5.11a15.11,15.11,0,0,0,.74,2.74l2.91,8.35,2.89-8.35a13.17,13.17,0,0,0,.71-2.74h5.14a21.87,21.87,0,0,0-.16,3v10.09a18.75,18.75,0,0,0,.16,3H354a20.49,20.49,0,0,0,.16-3V99.06c0-.47.05-1.92.09-2.52.06-1,.06-1,.08-1.32-.43,1.51-.62,2.21-.87,2.91l-1.88,5.31a16.38,16.38,0,0,0-.83,2.85Z"/>
            <path class="cls-1"
                  d="M363,106.29a21.93,21.93,0,0,0,.15-2.87V92.93a22.77,22.77,0,0,0-.15-2.82c.91,0,1.6,0,2.84,0h4.25c3.84,0,5.95,1.84,5.95,5.22s-2.21,5.5-6,5.5H367v2.48a26.85,26.85,0,0,0,.15,2.93Zm6.9-8.7a1.94,1.94,0,0,0,2.15-2.1,1.88,1.88,0,0,0-2.15-2H367v4.13Z"/>
            <path class="cls-1"
                  d="M390.32,106.29a15.27,15.27,0,0,0-.46-2.09l-.53-1.65h-5.52l-.52,1.65a11.43,11.43,0,0,0-.49,2.09h-4.53a20,20,0,0,0,.93-2.37l4.18-11.66a11,11,0,0,0,.62-2.1h5.06a15.59,15.59,0,0,0,.66,2.1l4.21,11.66c.37,1,.68,1.83.93,2.37Zm-3.78-12.81-1.8,5.81h3.65Z"/>
            <path class="cls-1"
                  d="M408.21,98.09a24.08,24.08,0,0,1,1.4,2.31c-.08-.89-.12-1.79-.12-2.87V93.11a22.24,22.24,0,0,0-.15-3h4.13a20.56,20.56,0,0,0-.16,3V103.4a23,23,0,0,0,.16,2.89h-4.25a20.72,20.72,0,0,0-1.45-2.46l-3.59-5.41A24.34,24.34,0,0,1,402.79,96c.09.87.13,1.93.13,2.88v4.35a20.56,20.56,0,0,0,.16,3H399a19.69,19.69,0,0,0,.15-3V93.05a21.14,21.14,0,0,0-.15-2.89h4.2a13.69,13.69,0,0,0,1.38,2.43Z"/>
            <path class="cls-1"
                  d="M422.91,90.16a17.5,17.5,0,0,0-.16,2.87v10.39a18.13,18.13,0,0,0,.16,2.87h-4.27a18.05,18.05,0,0,0,.16-2.87V93a17.66,17.66,0,0,0-.16-2.87Z"/>
            <path class="cls-1"
                  d="M436.92,103.42a25.08,25.08,0,0,0,.15,2.87h-4.22a24.92,24.92,0,0,0,.15-2.87V99.83l-4.45-7.32c-.35-.6-.78-1.24-1.55-2.35h4.9a9.34,9.34,0,0,0,.91,2L435,96.13l2.15-3.91a8.11,8.11,0,0,0,.89-2.06h4.91c-.56.82-1.3,1.92-1.55,2.35l-4.44,7.32Z"/>
            <path class="cls-1"
                  d="M455.86,106.29a16.74,16.74,0,0,0-.47-2.09l-.52-1.65h-5.53l-.52,1.65a10.61,10.61,0,0,0-.48,2.09H443.8a18.36,18.36,0,0,0,.93-2.37l4.19-11.66a11.85,11.85,0,0,0,.62-2.1h5.06a14.24,14.24,0,0,0,.66,2.1l4.2,11.66c.37,1,.68,1.83.93,2.37Zm-3.78-12.81-1.81,5.81h3.65Z"/>
            <path class="cls-1"
                  d="M468,101a2.6,2.6,0,0,0,.5,1.43,2.84,2.84,0,0,0,2.27.91c1.49,0,2.38-.66,2.38-1.74a1.46,1.46,0,0,0-.81-1.36,15.77,15.77,0,0,0-2.91-.79,7.48,7.48,0,0,1-3.12-1.13,4.36,4.36,0,0,1-1.88-3.72c0-3,2.41-4.86,6.22-4.86,2.47,0,4.35.75,5.39,2.21a5.26,5.26,0,0,1,1,2.32l-4.11.45C472.7,93.5,472,93,470.53,93c-1.18,0-2.06.64-2.06,1.53a1.35,1.35,0,0,0,.92,1.25,11.89,11.89,0,0,0,2.67.64,9.29,9.29,0,0,1,3.14,1.1,4.31,4.31,0,0,1,2.09,4,4.85,4.85,0,0,1-1.35,3.57,7.09,7.09,0,0,1-5.1,1.65,9.17,9.17,0,0,1-4.32-1,4.64,4.64,0,0,1-2.1-2.48,7.23,7.23,0,0,1-.42-1.81Z"/>
            <path class="cls-1"
                  d="M486.31,90.16a17.5,17.5,0,0,0-.16,2.87v10.39a18.13,18.13,0,0,0,.16,2.87H482a18.05,18.05,0,0,0,.16-2.87V93a17.66,17.66,0,0,0-.16-2.87Z"/>
        </g>
    </g>
</svg>